<?xml version="1.0" standalone="no"?>
<!DOCTYPE svg PUBLIC "-//W3C//DTD SVG 20010904//EN"
 "http://www.w3.org/TR/2001/REC-SVG-20010904/DTD/svg10.dtd">
<svg version="1.0" xmlns="http://www.w3.org/2000/svg"
 width="159.000000pt" height="159.000000pt" viewBox="0 0 159.000000 159.000000"
 preserveAspectRatio="xMidYMid meet">
<metadata>
Created by potrace 1.14, written by Peter Selinger 2001-2017
</metadata>
<g transform="translate(0.000000,159.000000) scale(0.100000,-0.100000)"
fill="#000000" stroke="none">
<path d="M10 1324 c0 -3 18 -49 39 -102 22 -53 42 -104 45 -112 3 -8 81 -202
174 -430 l168 -415 91 -3 90 -3 88 216 c49 118 91 215 94 215 3 0 30 -60 60
-133 30 -72 70 -169 89 -215 l34 -83 90 3 90 3 70 175 c38 96 76 189 83 205
10 23 251 618 272 673 4 9 -22 12 -108 12 l-114 0 -17 -43 c-9 -23 -42 -114
-73 -202 -31 -88 -72 -200 -90 -250 -18 -49 -52 -143 -75 -208 -24 -64 -45
-115 -48 -113 -2 3 -33 77 -68 165 l-63 159 90 242 c49 134 89 244 89 247 0 2
-44 2 -97 1 l-97 -3 -55 -167 c-31 -93 -58 -168 -61 -168 -3 0 -31 75 -61 168
l-56 167 -97 3 c-53 1 -96 0 -96 -2 0 -3 38 -111 85 -240 47 -128 85 -240 85
-247 0 -14 -103 -288 -119 -316 -5 -9 -35 60 -85 199 -43 117 -100 272 -126
343 -26 72 -59 160 -71 198 l-24 67 -112 0 c-62 0 -113 -3 -113 -6z"/>
</g>
</svg>
